<?xml version="1.0" encoding="iso-8859-1"?>
<!-- Generator: Adobe Illustrator 18.1.1, SVG Export Plug-In . SVG Version: 6.00 Build 0)  -->
<svg version="1.1" id="Capa_1" xmlns="http://www.w3.org/2000/svg" xmlns:xlink="http://www.w3.org/1999/xlink" x="0px" y="0px"
	 viewBox="0 0 51.222 51.222" style="enable-background:new 0 0 51.222 51.222;" xml:space="preserve">
<g>
	<g>
		<path style="fill:#010002;" d="M51.013,37.406c-1.435,4.024-10.132,7.12-19.857,7.12c-9.729,0-18.424-3.096-19.861-7.12
			c-0.222-0.621-0.208-0.636-0.208,0.024v4.483c0,4.578,9.414,8.29,20.068,8.29c10.651,0,20.067-3.712,20.067-8.29V37.43
			C51.222,36.769,51.235,36.785,51.013,37.406z"/>
		<path style="fill:#010002;" d="M20.266,41.851c3.118,0.862,6.842,1.37,10.859,1.37c10.925,0,19.778-3.715,19.778-8.293
			c0-1.94-1.604-3.721-4.271-5.133c-0.582-0.309-1.559-0.299-2.156-0.021L20.205,41.007C19.606,41.283,19.63,41.675,20.266,41.851z"
			/>
		<path style="fill:#010002;" d="M11.345,34.928c0,1.789,1.36,3.443,3.664,4.8c0.568,0.335,1.536,0.341,2.136,0.063l24.148-11.176
			c0.597-0.276,0.569-0.651-0.069-0.813c-2.957-0.737-6.406-1.164-10.099-1.164C20.2,26.637,11.345,30.348,11.345,34.928z"/>
		<path style="fill:#010002;" d="M20.342,26.378c3.441-0.877,7.479-1.385,11.803-1.385c0.73,0,1.455,0.015,2.168,0.044
			c0.552,0.022,1.149-0.371,1.307-0.901c0.479-1.619,0.742-3.329,0.742-5.103c0-9.231-6.885-16.836-15.797-18.004
			c-0.654-0.086-1.189,0.418-1.189,1.078v23.532C19.376,26.192,19.807,26.514,20.342,26.378z"/>
		<path style="fill:#010002;" d="M16.053,27.755c0.512-0.207,0.934-0.807,0.934-1.358V2.106c0-0.66-0.535-1.164-1.188-1.078
			C6.885,2.196,0,9.8,0,19.032c0,6.385,3.303,11.982,8.287,15.219c0.463,0.301,0.851,0.479,0.845,0.43
			c-0.004-0.028-0.008-0.06-0.008-0.09C9.124,31.905,11.787,29.484,16.053,27.755z"/>
	</g>
</g>
<g>
</g>
<g>
</g>
<g>
</g>
<g>
</g>
<g>
</g>
<g>
</g>
<g>
</g>
<g>
</g>
<g>
</g>
<g>
</g>
<g>
</g>
<g>
</g>
<g>
</g>
<g>
</g>
<g>
</g>
</svg>
