<?xml version="1.0" encoding="iso-8859-1"?>
<!-- Generator: Adobe Illustrator 18.0.0, SVG Export Plug-In . SVG Version: 6.00 Build 0)  -->
<!DOCTYPE svg PUBLIC "-//W3C//DTD SVG 1.1//EN" "http://www.w3.org/Graphics/SVG/1.1/DTD/svg11.dtd">
<svg version="1.1" id="Capa_1" xmlns="http://www.w3.org/2000/svg" xmlns:xlink="http://www.w3.org/1999/xlink" x="0px" y="0px"
	 viewBox="0 0 297 297" style="enable-background:new 0 0 297 297;" xml:space="preserve">
<g>
	<path d="M148.499,113.506c27.691-24.266,67.122-65.18,67.122-83.41C215.621,3.91,196.766,0,185.526,0
		c-8.079,0-11.54,3.091-15.924,7.002c-4.657,4.158-10.454,9.332-21.102,9.332c-13.065,0-18.783-5.634-23.377-10.161
		C121.351,2.456,118.858,0,111.474,0C94.598,0,81.379,13.22,81.379,30.096C81.379,48.338,120.809,89.246,148.499,113.506z"/>
	<path d="M138.257,131.373c-24.266-27.691-65.18-67.122-83.41-67.122c-16.876,0-30.096,13.219-30.096,30.095
		c0,7.384,2.456,9.877,6.174,13.649c4.526,4.594,10.161,10.312,10.161,23.377c0,10.648-5.174,16.445-9.332,21.102
		c-3.912,4.383-7.002,7.845-7.002,15.924c0,11.24,3.91,30.095,30.096,30.095C73.09,198.493,113.997,159.063,138.257,131.373z"/>
	<path d="M146.162,142.579c-2.304,2.466-4.606,5.394-7.961,8.982c1.117,12.175,2.358,32.867,0.957,53.885
		c-1.909,28.645-9.114,64.434-32.592,72.26c-5.187,1.73-7.99,7.336-6.262,12.523c1.383,4.148,5.246,6.772,9.391,6.772
		c1.037,0,2.093-0.164,3.131-0.51c27.217-9.072,42.723-39.261,46.088-89.728c1.459-21.877,0.27-42.225-0.895-55.202
		c-3.037-3.26-6.268-6.415-8.396-8.907C148.722,141.597,147.11,141.564,146.162,142.579z"/>
	<path d="M255.914,131.372c0-13.065,5.634-18.783,10.161-23.377c3.718-3.772,6.174-6.265,6.174-13.649
		c0-16.876-13.22-30.095-30.096-30.095c-18.242,0-59.15,39.43-83.41,67.12c24.266,27.691,65.18,67.122,83.41,67.122
		c26.186,0,30.096-18.855,30.096-30.095c0-8.079-3.091-11.54-7.002-15.924C261.088,147.817,255.914,142.02,255.914,131.372z"/>
</g>
<g>
</g>
<g>
</g>
<g>
</g>
<g>
</g>
<g>
</g>
<g>
</g>
<g>
</g>
<g>
</g>
<g>
</g>
<g>
</g>
<g>
</g>
<g>
</g>
<g>
</g>
<g>
</g>
<g>
</g>
</svg>
