<?xml version="1.0" encoding="iso-8859-1"?>
<!-- Generator: Adobe Illustrator 18.0.0, SVG Export Plug-In . SVG Version: 6.00 Build 0)  -->
<!DOCTYPE svg PUBLIC "-//W3C//DTD SVG 1.1//EN" "http://www.w3.org/Graphics/SVG/1.1/DTD/svg11.dtd">
<svg version="1.1" id="Capa_1" xmlns="http://www.w3.org/2000/svg" xmlns:xlink="http://www.w3.org/1999/xlink" x="0px" y="0px"
	 viewBox="0 0 297 297" style="enable-background:new 0 0 297 297;" xml:space="preserve">
<path d="M266.081,140.254c0-5.835,1.577-7.437,5.034-10.945c4.399-4.464,10.425-10.579,10.425-24.096
	c0-24.902-19.507-44.409-44.409-44.409c-4.509,0-9.572,1.224-15.22,3.687c4.039-7.646,6.039-14.317,6.039-20.083
	c0-17.864-7.267-28.155-13.364-33.642C206.759,3.723,196.024,0,183.54,0c-13.72,0-20.631,6.169-25.677,10.673
	c-3.984,3.556-5.555,4.786-9.364,4.786c-5.835,0-7.437-1.577-10.945-5.034C133.091,6.026,126.977,0,113.46,0
	C88.558,0,69.051,19.507,69.051,44.409c0,5.766,2,12.437,6.039,20.083c-5.649-2.464-10.711-3.687-15.22-3.687
	c-24.903,0-44.409,19.507-44.409,44.409c0,13.517,6.026,19.632,10.425,24.096c3.457,3.508,5.034,5.109,5.034,10.945
	c0,3.809-1.23,5.38-4.786,9.364c-4.504,5.046-10.673,11.956-10.673,25.677c0,12.483,3.723,23.218,10.767,31.045
	c5.488,6.096,15.778,13.364,33.642,13.364c14.317,0,34.198-12.307,60.779-37.625c7.502-7.145,14.39-14.241,19.975-20.208
	c0.999,11.673,1.966,29.77,0.718,48.485c-1.807,27.109-8.625,60.979-30.845,68.385c-4.909,1.637-7.562,6.943-5.926,11.851
	c1.309,3.926,4.964,6.409,8.888,6.409c0.982,0,1.981-0.156,2.963-0.483c25.757-8.586,40.432-37.156,43.616-84.916
	c1.16-17.392,0.55-34.037-0.327-46.201c4.903,5.147,10.569,10.895,16.641,16.678c26.581,25.318,46.462,37.625,60.779,37.625
	c17.864,0,28.155-7.267,33.642-13.364c7.044-7.826,10.767-18.561,10.767-31.045c0-13.72-6.169-20.631-10.673-25.677
	C267.311,145.634,266.081,144.063,266.081,140.254z M113.46,18.738c5.835,0,7.437,1.577,10.945,5.034
	c4.464,4.399,10.579,10.425,24.096,10.425c11.149,0,17.33-5.517,21.842-9.546c4.131-3.687,6.624-5.913,13.198-5.913
	c11.71,0,25.671,4.454,25.671,25.671c0,3.227-2.333,16.206-32.353,47.749c-10.844,11.394-21.806,21.515-28.358,27.381
	c-6.552-5.867-17.514-15.988-28.358-27.381c-30.02-31.543-32.353-44.522-32.353-47.749C87.789,29.774,98.825,18.738,113.46,18.738z
	 M107.619,168.612c-31.543,30.02-44.522,32.353-47.749,32.353c-21.217,0-25.671-13.96-25.671-25.671
	c0-6.574,2.226-9.067,5.913-13.198c4.028-4.512,9.546-10.693,9.546-21.842c0-13.517-6.026-19.632-10.425-24.096
	c-3.457-3.508-5.034-5.109-5.034-10.945c0-14.634,11.036-25.671,25.671-25.671c3.227,0,16.206,2.333,47.749,32.353
	c11.394,10.844,21.515,21.806,27.381,28.358C129.133,146.806,119.012,157.768,107.619,168.612z M256.889,162.096
	c3.687,4.131,5.913,6.624,5.913,13.198c0,11.71-4.454,25.671-25.671,25.671c-3.227,0-16.206-2.333-47.749-32.353
	c-11.394-10.844-21.515-21.806-27.381-28.358c5.867-6.552,15.988-17.514,27.381-28.358c31.543-30.02,44.522-32.353,47.749-32.353
	c14.635,0,25.671,11.036,25.671,25.671c0,5.835-1.577,7.437-5.034,10.945c-4.399,4.464-10.425,10.579-10.425,24.096
	C247.343,151.404,252.86,157.584,256.889,162.096z"/>
<g>
</g>
<g>
</g>
<g>
</g>
<g>
</g>
<g>
</g>
<g>
</g>
<g>
</g>
<g>
</g>
<g>
</g>
<g>
</g>
<g>
</g>
<g>
</g>
<g>
</g>
<g>
</g>
<g>
</g>
</svg>
