<svg style="position: absolute; width: 0; height: 0; overflow: hidden;" version="1.1" xmlns="http://www.w3.org/2000/svg" xmlns:xlink="http://www.w3.org/1999/xlink">
<defs>
<symbol id="icon-clock" viewBox="0 0 32 32">
<title>clock</title>
<path d="M16 0c-8.822 0-16 7.178-16 16s7.178 16 16 16 16-7.178 16-16-7.178-16-16-16zM16 28.595c-6.945 0-12.596-5.65-12.596-12.595s5.651-12.595 12.596-12.595 12.596 5.65 12.596 12.595-5.651 12.595-12.596 12.595z"></path>
<path d="M24.339 15.506h-7.19v-8.646c0-0.728-0.59-1.317-1.317-1.317s-1.317 0.59-1.317 1.317v9.963c0 0.728 0.59 1.317 1.317 1.317h8.508c0.728 0 1.317-0.59 1.317-1.317s-0.59-1.317-1.317-1.317z"></path>
</symbol>
<symbol id="icon-hours" viewBox="0 0 32 32">
<title>hours</title>
<path d="M31.434 11.767c-0.091-0.334-0.437-0.53-0.77-0.439s-0.531 0.436-0.439 0.77c0.346 1.267 0.522 2.579 0.522 3.902 0 8.131-6.615 14.747-14.747 14.747s-14.747-6.615-14.747-14.747 6.615-14.747 14.747-14.747c4.455 0 8.657 2.021 11.447 5.453h-0.962c-0.346 0-0.627 0.281-0.627 0.627s0.28 0.627 0.627 0.627h2.425c0.346 0 0.627-0.281 0.627-0.627v-2.424c0-0.346-0.28-0.627-0.627-0.627s-0.627 0.281-0.627 0.627v0.84c-3.026-3.622-7.521-5.748-12.283-5.748-8.822 0-16 7.178-16 16s7.178 16 16 16 16-7.178 16-16c0-1.434-0.191-2.858-0.566-4.233z"></path>
<path d="M14.671 21.932h-5.046l3.17-3.17c1.614-1.614 2.503-3.759 2.503-6.042 0-2.154-1.752-3.906-3.906-3.906s-3.906 1.752-3.906 3.906c0 0.346 0.28 0.627 0.627 0.627s0.627-0.281 0.627-0.627c0-1.463 1.19-2.653 2.653-2.653s2.653 1.19 2.653 2.653c0 1.947-0.758 3.778-2.136 5.155l-4.24 4.24c-0.179 0.179-0.233 0.449-0.136 0.683s0.325 0.387 0.579 0.387h6.559c0.346 0 0.627-0.281 0.627-0.627s-0.28-0.627-0.627-0.627z"></path>
<path d="M24.724 17.629h-1.739v-8.188c0-0.282-0.188-0.529-0.46-0.604s-0.56 0.041-0.705 0.283l-5.264 8.815c-0.116 0.194-0.118 0.434-0.007 0.631s0.319 0.317 0.545 0.317h4.637v3.676c0 0.346 0.28 0.627 0.627 0.627s0.627-0.281 0.627-0.627v-3.676h1.739c0.346 0 0.627-0.281 0.627-0.627s-0.28-0.627-0.627-0.627zM21.732 17.629h-3.533l3.533-5.917v5.917z"></path>
<path d="M16 2.24c-0.346 0-0.627 0.281-0.627 0.627v0.817c0 0.346 0.281 0.627 0.627 0.627s0.627-0.281 0.627-0.627v-0.817c0-0.346-0.28-0.627-0.627-0.627z"></path>
<path d="M16 27.689c-0.346 0-0.627 0.281-0.627 0.627v0.817c0 0.346 0.28 0.627 0.627 0.627s0.627-0.281 0.627-0.627v-0.817c0-0.346-0.28-0.627-0.627-0.627z"></path>
<path d="M29.264 15.373h-0.947c-0.346 0-0.627 0.281-0.627 0.627s0.28 0.627 0.627 0.627h0.947c0.346 0 0.627-0.281 0.627-0.627s-0.281-0.627-0.627-0.627z"></path>
<path d="M3.684 15.373h-0.947c-0.346 0-0.627 0.281-0.627 0.627s0.28 0.627 0.627 0.627h0.947c0.346 0 0.627-0.281 0.627-0.627s-0.28-0.627-0.627-0.627z"></path>
<path d="M28.128 9.36c0 0.346-0.281 0.627-0.627 0.627s-0.627-0.281-0.627-0.627c0-0.346 0.281-0.627 0.627-0.627s0.627 0.281 0.627 0.627z"></path>
<path d="M23.267 4.499c0 0.346-0.281 0.627-0.627 0.627s-0.627-0.281-0.627-0.627c0-0.346 0.281-0.627 0.627-0.627s0.627 0.281 0.627 0.627z"></path>
<path d="M9.986 4.499c0 0.346-0.281 0.627-0.627 0.627s-0.627-0.281-0.627-0.627c0-0.346 0.281-0.627 0.627-0.627s0.627 0.281 0.627 0.627z"></path>
<path d="M5.125 9.36c0 0.346-0.281 0.627-0.627 0.627s-0.627-0.281-0.627-0.627c0-0.346 0.281-0.627 0.627-0.627s0.627 0.281 0.627 0.627z"></path>
<path d="M5.125 22.641c0 0.346-0.281 0.627-0.627 0.627s-0.627-0.281-0.627-0.627c0-0.346 0.281-0.627 0.627-0.627s0.627 0.281 0.627 0.627z"></path>
<path d="M9.986 27.502c0 0.346-0.281 0.627-0.627 0.627s-0.627-0.281-0.627-0.627c0-0.346 0.281-0.627 0.627-0.627s0.627 0.281 0.627 0.627z"></path>
<path d="M23.267 27.501c0 0.346-0.281 0.627-0.627 0.627s-0.627-0.281-0.627-0.627c0-0.346 0.281-0.627 0.627-0.627s0.627 0.281 0.627 0.627z"></path>
<path d="M28.128 22.64c0 0.346-0.281 0.627-0.627 0.627s-0.627-0.281-0.627-0.627c0-0.346 0.281-0.627 0.627-0.627s0.627 0.281 0.627 0.627z"></path>
</symbol>
<symbol id="icon-clover" viewBox="0 0 32 32">
<title>clover</title>
<path d="M25.14 10.546c-2.015 0-4.283 0.51-5.785 0.847-0.019 0.004-0.038 0.008-0.057 0.013 0.001-0.001 0.002-0.002 0.003-0.004 2.191-2.363 6.268-6.762 4.028-9.771-0.806-1.083-1.803-1.632-2.964-1.632-1.482 0-2.857 0.915-3.767 1.521-0.206 0.137-0.451 0.3-0.599 0.381-0.148-0.081-0.393-0.244-0.599-0.381-0.91-0.606-2.285-1.521-3.767-1.521-1.161 0-2.158 0.549-2.964 1.632-2.24 3.009 1.838 7.407 4.028 9.771 0.001 0.001 0.002 0.002 0.003 0.004-0.019-0.004-0.038-0.009-0.057-0.013-1.501-0.337-3.77-0.847-5.784-0.847-2.43 0-3.986 0.75-4.623 2.228-0.65 1.508-0.462 2.904 0.544 4.036 0.791 0.89 1.909 1.444 2.725 1.849 0.221 0.11 0.485 0.24 0.629 0.328 0.004 0.169-0.015 0.462-0.030 0.709-0.058 0.909-0.137 2.155 0.238 3.285 0.478 1.438 1.592 2.298 3.224 2.489 0.127 0.015 0.254 0.022 0.38 0.022 0 0 0.001 0 0.001 0 1.526-0 2.883-1.081 4.033-3.214 0.539-0.999 0.975-2.108 1.335-3.145v12.866h1.368v-12.867c0.36 1.037 0.796 2.146 1.335 3.146 1.15 2.133 2.507 3.214 4.033 3.214 0.125 0 0.253-0.007 0.38-0.022 1.631-0.191 2.746-1.051 3.224-2.489 0.376-1.13 0.296-2.375 0.238-3.285-0.016-0.246-0.034-0.54-0.030-0.709 0.144-0.088 0.408-0.219 0.629-0.328 0.816-0.404 1.934-0.959 2.725-1.849 1.006-1.133 1.194-2.528 0.544-4.036-0.638-1.479-2.193-2.228-4.624-2.228zM25.886 17.433c-0.649 0.321-1.041 0.516-1.236 0.854s-0.167 0.774-0.121 1.497c0.135 2.126 0.065 4.056-2.255 4.328-0.074 0.009-0.149 0.013-0.221 0.013-2.398 0-3.941-4.934-4.682-7.305-0.166-0.532-0.31-0.991-0.435-1.323-0.132-0.351-0.353-0.939-0.936-0.939s-0.803 0.588-0.936 0.939c-0.125 0.332-0.269 0.791-0.435 1.323-0.741 2.371-2.284 7.305-4.682 7.305-0 0-0 0-0 0-0.073 0-0.148-0.004-0.222-0.013-2.32-0.271-2.39-2.202-2.255-4.328 0.046-0.723 0.074-1.159-0.121-1.497s-0.587-0.532-1.236-0.854c-1.909-0.946-3.545-1.972-2.62-4.117 0.407-0.943 1.508-1.402 3.367-1.402 1.863 0 4.042 0.49 5.484 0.814 0.954 0.214 1.468 0.326 1.803 0.326 0 0 0 0 0 0 0.601-0 0.777-0.406 0.816-0.53 0.143-0.45-0.178-0.831-0.411-1.11-0.209-0.249-0.507-0.57-0.851-0.942-1.783-1.924-5.494-5.927-3.934-8.023 0.541-0.727 1.152-1.081 1.866-1.081 1.068 0 2.19 0.746 3.009 1.291 0.603 0.401 0.967 0.643 1.357 0.643s0.754-0.242 1.357-0.643c0.819-0.545 1.94-1.291 3.009-1.291 0.715 0 1.325 0.353 1.866 1.081 1.56 2.096-2.151 6.099-3.934 8.023-0.345 0.372-0.642 0.693-0.851 0.942-0.234 0.279-0.554 0.661-0.411 1.11 0.039 0.124 0.215 0.53 0.817 0.53 0.335-0 0.848-0.112 1.803-0.326 1.442-0.324 3.622-0.814 5.485-0.814 1.833 0 2.966 0.472 3.367 1.402 0.925 2.145-0.712 3.171-2.62 4.117z"></path>
</symbol>
<symbol id="icon-payment" viewBox="0 0 32 32">
<title>payment</title>
<path d="M30.778 5.919l-19.598-4.148c-0.829-0.175-1.651 0.36-1.826 1.189l-0.372 2.393 22.613 4.785 0.372-2.393c0.175-0.829-0.359-1.651-1.188-1.826z"></path>
<path d="M22.537 10.645c-0.229-0.824-1.090-1.312-1.915-1.083l-3.721 1.033-8.771-1.856-0.965 4.558-6.027 1.673c-0.824 0.229-1.311 1.090-1.083 1.914l3.397 12.239c0.229 0.824 1.090 1.312 1.915 1.083l19.483-5.407c0.824-0.229 1.311-1.090 1.083-1.915l-0.583-2.101 2.185 0.462c0.829 0.176 1.651-0.359 1.826-1.188l1.382-6.533-7.871-1.666-0.337-1.213zM24.787 16.866l0.482-2.277c0.072-0.341 0.41-0.561 0.751-0.489l2.277 0.482c0.341 0.072 0.561 0.41 0.489 0.751l-0.482 2.277c-0.072 0.341-0.41 0.561-0.751 0.489l-2.277-0.482c-0.342-0.073-0.562-0.411-0.489-0.752zM1.478 16.191l19.482-5.406c0.025-0.007 0.050-0.010 0.074-0.010 0.11 0 0.241 0.072 0.279 0.21l0.161 0.579 0.504 1.815-20.036 5.56-0.664-2.393c-0.042-0.15 0.050-0.312 0.2-0.354zM24.711 23.223c0.026 0.093-0.001 0.17-0.029 0.218s-0.079 0.111-0.172 0.136l-19.483 5.407c-0.025 0.007-0.050 0.010-0.074 0.010-0.11 0-0.241-0.072-0.279-0.21l-1.981-7.139 20.036-5.56 1.981 7.139z"></path>
<path d="M8.177 23.712c-0.094-0.336-0.444-0.535-0.781-0.441l-2.275 0.632c-0.336 0.093-0.535 0.444-0.441 0.781l0.631 2.275c0.093 0.336 0.444 0.535 0.781 0.441l2.275-0.631c0.336-0.093 0.535-0.444 0.441-0.781l-0.632-2.275z"></path>
</symbol>
<symbol id="icon-email" viewBox="0 0 32 32">
<title>email</title>
<path d="M32 25.931v-19.863l-11.033 9.931z"></path>
<path d="M16 20.47l-3.15-2.835-11.034 9.931h28.367l-11.034-9.931z"></path>
<path d="M30.184 4.434h-28.367l14.184 12.767z"></path>
<path d="M0 6.069v19.863l11.033-9.931z"></path>
</symbol>
<symbol id="icon-hr" viewBox="0 0 32 32">
<title>hr</title>
<path d="M31.609 29.723l-5.676-5.676c2.122-2.544 3.4-5.815 3.4-9.379 0-8.087-6.579-14.667-14.667-14.667s-14.667 6.579-14.667 14.667 6.579 14.667 14.667 14.667c3.565 0 6.837-1.279 9.381-3.402l5.676 5.676c0.26 0.26 0.602 0.39 0.943 0.39s0.683-0.13 0.943-0.39c0.521-0.521 0.521-1.365 0-1.886zM8.444 20.89c0-3.437 2.786-6.222 6.222-6.222-2.209 0-4-1.791-4-4s1.791-4 4-4 4 1.791 4 4-1.791 4-4 4c3.436 0 6.222 2.785 6.222 6.222h-12.444z"></path>
</symbol>
<symbol id="icon-prom" viewBox="0 0 32 32">
<title>prom</title>
<path d="M2.087 9.739c-1.15 0-2.087 0.935-2.087 2.087v8.348c0 1.151 0.936 2.087 2.087 2.087s2.087-0.935 2.087-2.087v-8.348c0-1.152-0.936-2.087-2.087-2.087z"></path>
<path d="M29.913 3.478c-1.151 0-2.087 0.935-2.087 2.087v20.87c0 1.151 0.935 2.087 2.087 2.087s2.087-0.935 2.087-2.087v-20.869c0-1.152-0.935-2.087-2.087-2.087z"></path>
<path d="M6.261 11.468v9.064l2.087 0.626v1.847c0 1.392 0.897 2.596 2.232 2.996l6.261 1.879c0.925 0.283 1.948 0.123 2.768-0.487 0.792-0.589 1.248-1.493 1.258-2.479l4.873 1.253v-20.334l-19.478 5.635zM18.783 24.882c0 0.677-0.644 1.202-1.343 1.001l-6.261-1.879c-0.444-0.135-0.744-0.536-0.744-0.999v-1.221l8.348 2.504v0.593z"></path>
</symbol>
<symbol id="icon-metro" viewBox="0 0 32 32">
<title>metro</title>
<path d="M21.187 3.596l-5.187 16.354-5.187-16.354c-6.17 2.121-10.813 7.874-10.813 14.47 0 3.973 1.621 7.636 4.243 10.337h7.521l0.788-3.419c-8.985-3.52-7.286-14.429-4.029-16.209 0.387 0.116 6.052 19.548 6.052 19.548 0.077 0 0.329 0 0.636 0 0.065 0 0.309 0 0.614 0 0.11 0 0.229 0 0.35 0 0.207 0 0.421 0 0.613 0 0.308 0 0.559 0 0.636 0 0 0 5.666-19.432 6.052-19.548 3.257 1.781 4.956 12.689-4.029 16.209l0.789 3.419h7.521c2.622-2.7 4.243-6.364 4.243-10.337 0-6.596-4.642-12.349-10.812-14.47z"></path>
</symbol>
<symbol id="icon-sale" viewBox="0 0 32 32">
<title>sale</title>
<path d="M18.344 11.239c-0.184 0-0.353 0.099-0.442 0.261l-4.692 8.521c-0.085 0.154-0.083 0.343 0.007 0.494 0.089 0.152 0.253 0.245 0.429 0.245 0.182 0 0.35-0.099 0.438-0.258l4.7-8.517c0.086-0.155 0.083-0.346-0.008-0.499-0.089-0.153-0.255-0.247-0.433-0.247z"></path>
<path d="M15.221 13.893c0-1.561-0.885-2.713-2.46-2.713-1.562 0-2.559 1.238-2.559 2.865 0 1.717 1.097 2.755 2.488 2.755 1.321 0.001 2.531-0.997 2.531-2.907zM12.733 15.636c-0.619 0-0.941-0.69-0.941-1.645 0-0.915 0.295-1.644 0.927-1.644 0.661 0 0.912 0.717 0.912 1.644 0 1.026-0.295 1.645-0.899 1.645z"></path>
<path d="M19.339 14.974c-1.561 0-2.559 1.238-2.559 2.867 0.014 1.715 1.111 2.755 2.488 2.755 1.322 0 2.529-0.999 2.529-2.91 0.001-1.56-0.883-2.712-2.458-2.712zM19.311 19.428c-0.618 0-0.942-0.688-0.927-1.643 0-0.915 0.279-1.646 0.927-1.646 0.659 0 0.9 0.718 0.9 1.646 0 1.027-0.297 1.643-0.9 1.643z"></path>
<path d="M29.693 11.551c-0.496-1.534 0.182-3.68-0.748-4.956-0.938-1.288-3.196-1.303-4.484-2.241-1.277-0.929-1.982-3.077-3.515-3.574-1.48-0.48-3.306 0.828-4.946 0.828s-3.466-1.308-4.946-0.828c-1.533 0.497-2.239 2.645-3.515 3.574-1.289 0.938-3.546 0.952-4.484 2.24-0.929 1.276-0.251 3.422-0.748 4.956-0.481 1.479-2.307 2.809-2.307 4.449s1.826 2.971 2.307 4.449c0.497 1.533-0.182 3.68 0.748 4.956 0.938 1.288 3.195 1.303 4.485 2.24 1.276 0.929 1.982 3.078 3.514 3.575 1.479 0.48 3.306-0.828 4.946-0.828s3.466 1.308 4.946 0.828c1.534-0.498 2.239-2.646 3.515-3.575 1.288-0.938 3.546-0.952 4.484-2.241 0.929-1.276 0.251-3.423 0.748-4.955 0.481-1.48 2.307-2.81 2.307-4.45s-1.826-2.97-2.307-4.449zM16 27.275c-6.227 0-11.275-5.048-11.275-11.276 0-6.226 5.048-11.275 11.275-11.275s11.275 5.048 11.275 11.275c0 6.228-5.047 11.276-11.275 11.276z"></path>
<path d="M16 6.163c-5.424 0-9.837 4.413-9.837 9.837 0 5.425 4.413 9.837 9.837 9.837s9.837-4.412 9.837-9.837c0.001-5.424-4.413-9.837-9.837-9.837zM16 24.231c-4.539 0-8.231-3.693-8.231-8.231s3.693-8.229 8.231-8.229 8.231 3.692 8.231 8.229c0.001 4.538-3.693 8.231-8.231 8.231z"></path>
</symbol>
<symbol id="icon-hotline" viewBox="0 0 32 32">
<title>hotline</title>
<path d="M24.329 21.169c-1.045-1.032-2.351-1.032-3.389 0-0.792 0.786-1.585 1.572-2.364 2.371-0.213 0.22-0.393 0.266-0.653 0.12-0.513-0.28-1.059-0.506-1.552-0.812-2.297-1.445-4.222-3.303-5.926-5.394-0.846-1.039-1.598-2.151-2.124-3.403-0.107-0.253-0.087-0.419 0.12-0.626 0.792-0.766 1.565-1.552 2.344-2.337 1.085-1.092 1.085-2.371-0.007-3.469-0.619-0.626-1.239-1.239-1.858-1.864-0.639-0.639-1.272-1.285-1.918-1.918-1.045-1.019-2.351-1.019-3.389 0.007-0.799 0.786-1.565 1.591-2.377 2.364-0.752 0.713-1.132 1.585-1.212 2.604-0.127 1.658 0.28 3.223 0.852 4.748 1.172 3.156 2.957 5.96 5.121 8.53 2.923 3.476 6.413 6.226 10.494 8.21 1.838 0.892 3.742 1.578 5.813 1.691 1.425 0.080 2.664-0.28 3.656-1.392 0.679-0.759 1.445-1.452 2.164-2.177 1.065-1.079 1.072-2.384 0.013-3.449-1.265-1.272-2.537-2.537-3.809-3.802z"></path>
<path d="M23.057 15.861l2.457-0.419c-0.386-2.257-1.452-4.302-3.070-5.926-1.711-1.711-3.875-2.79-6.259-3.123l-0.346 2.47c1.844 0.26 3.523 1.092 4.848 2.417 1.252 1.252 2.071 2.837 2.371 4.581z"></path>
<path d="M26.899 5.181c-2.837-2.837-6.426-4.628-10.388-5.181l-0.346 2.47c3.423 0.479 6.526 2.031 8.976 4.475 2.324 2.324 3.849 5.261 4.402 8.49l2.457-0.419c-0.646-3.742-2.411-7.138-5.101-9.835z"></path>
</symbol>
<symbol id="icon-phone" viewBox="0 0 32 32">
<title>phone</title>
<path d="M31.283 25.289l-4.942-4.942c-0.984-0.98-2.614-0.951-3.633 0.068l-2.49 2.489c-0.157-0.087-0.32-0.177-0.491-0.273-1.572-0.871-3.724-2.065-5.989-4.331-2.271-2.271-3.466-4.426-4.34-5.999-0.092-0.167-0.181-0.327-0.268-0.48l2.492-2.491c1.020-1.020 1.048-2.65 0.066-3.633l-4.942-4.943c-0.982-0.982-2.613-0.952-3.633 0.068l-1.393 1.401 0.038 0.038c-0.467 0.596-0.857 1.283-1.148 2.024-0.268 0.705-0.434 1.379-0.511 2.053-0.653 5.41 1.82 10.354 8.529 17.063 9.274 9.273 16.747 8.573 17.070 8.538 0.702-0.084 1.375-0.252 2.059-0.517 0.735-0.287 1.422-0.677 2.017-1.143l0.030 0.027 1.411-1.382c1.018-1.020 1.047-2.65 0.066-3.635z"></path>
</symbol>
<symbol id="icon-vk" viewBox="0 0 32 32">
<title>vk</title>
<path d="M31.83 23.36c-0.039-0.084-0.075-0.153-0.108-0.208-0.555-1-1.616-2.227-3.182-3.682l-0.033-0.033-0.017-0.016-0.017-0.017h-0.017c-0.711-0.678-1.161-1.133-1.349-1.366-0.345-0.444-0.422-0.894-0.234-1.35 0.133-0.344 0.633-1.071 1.5-2.182 0.456-0.589 0.816-1.061 1.083-1.416 1.922-2.555 2.755-4.187 2.499-4.898l-0.099-0.166c-0.067-0.1-0.239-0.192-0.516-0.275s-0.633-0.097-1.067-0.042l-4.798 0.033c-0.078-0.028-0.189-0.025-0.333 0.008s-0.217 0.050-0.217 0.050l-0.084 0.042-0.066 0.050c-0.056 0.033-0.117 0.091-0.183 0.175s-0.122 0.181-0.166 0.292c-0.522 1.344-1.116 2.594-1.783 3.749-0.411 0.689-0.788 1.286-1.133 1.791s-0.633 0.877-0.866 1.116c-0.233 0.239-0.444 0.43-0.633 0.575s-0.333 0.206-0.433 0.183c-0.1-0.022-0.194-0.045-0.284-0.067-0.155-0.1-0.28-0.236-0.375-0.408s-0.158-0.389-0.192-0.65c-0.033-0.261-0.053-0.486-0.058-0.675s-0.003-0.456 0.008-0.8c0.012-0.344 0.017-0.578 0.017-0.7 0-0.422 0.008-0.88 0.025-1.375s0.030-0.886 0.042-1.174c0.011-0.289 0.017-0.594 0.017-0.916s-0.020-0.575-0.058-0.758c-0.038-0.183-0.097-0.361-0.174-0.533s-0.192-0.305-0.342-0.4c-0.15-0.094-0.336-0.169-0.558-0.225-0.589-0.133-1.338-0.205-2.249-0.216-2.066-0.022-3.393 0.111-3.982 0.4-0.233 0.122-0.444 0.289-0.633 0.5-0.2 0.244-0.228 0.378-0.084 0.4 0.667 0.1 1.138 0.339 1.416 0.716l0.1 0.2c0.078 0.144 0.156 0.4 0.233 0.766s0.128 0.772 0.15 1.216c0.055 0.811 0.055 1.505 0 2.083s-0.108 1.027-0.158 1.35-0.125 0.583-0.225 0.783c-0.1 0.2-0.167 0.322-0.2 0.366s-0.061 0.072-0.083 0.083c-0.144 0.055-0.295 0.084-0.45 0.084s-0.344-0.078-0.566-0.233c-0.222-0.156-0.453-0.369-0.691-0.641s-0.508-0.653-0.808-1.141c-0.3-0.489-0.611-1.066-0.933-1.733l-0.267-0.483c-0.167-0.311-0.394-0.764-0.683-1.358s-0.544-1.169-0.766-1.725c-0.089-0.233-0.222-0.411-0.4-0.533l-0.083-0.050c-0.055-0.044-0.144-0.091-0.266-0.142s-0.25-0.086-0.383-0.108l-4.565 0.033c-0.467 0-0.783 0.106-0.95 0.317l-0.067 0.1c-0.033 0.056-0.050 0.144-0.050 0.267s0.033 0.272 0.1 0.45c0.666 1.566 1.391 3.077 2.174 4.532s1.463 2.627 2.041 3.515c0.578 0.889 1.166 1.727 1.766 2.516s0.997 1.294 1.191 1.516c0.194 0.222 0.347 0.389 0.458 0.5l0.417 0.4c0.267 0.267 0.658 0.586 1.175 0.958s1.089 0.739 1.716 1.1c0.628 0.361 1.358 0.655 2.191 0.883s1.644 0.319 2.433 0.275h1.916c0.389-0.034 0.683-0.156 0.883-0.367l0.066-0.084c0.045-0.066 0.086-0.169 0.125-0.308s0.058-0.292 0.058-0.458c-0.011-0.478 0.025-0.908 0.108-1.291s0.178-0.672 0.284-0.866c0.106-0.194 0.225-0.358 0.358-0.491s0.228-0.214 0.284-0.242c0.055-0.028 0.099-0.047 0.133-0.058 0.267-0.089 0.58-0.003 0.942 0.258s0.7 0.583 1.016 0.966c0.317 0.383 0.697 0.814 1.141 1.291s0.833 0.833 1.166 1.066l0.333 0.2c0.222 0.133 0.511 0.256 0.867 0.367s0.666 0.139 0.933 0.083l4.265-0.067c0.422 0 0.75-0.070 0.983-0.208s0.372-0.292 0.417-0.458c0.045-0.167 0.047-0.355 0.008-0.567s-0.078-0.358-0.117-0.441z"></path>
</symbol>
</defs>
</svg>
